<?xml version="1.0" standalone="no"?>
<!DOCTYPE svg PUBLIC "-//W3C//DTD SVG 20010904//EN"
 "http://www.w3.org/TR/2001/REC-SVG-20010904/DTD/svg10.dtd">
<svg version="1.0" xmlns="http://www.w3.org/2000/svg"
 width="1920.000000pt" height="1920.000000pt" viewBox="0 0 1920.000000 1920.000000"
 preserveAspectRatio="xMidYMid meet">
<metadata>
Created by potrace 1.16, written by Peter Selinger 2001-2019
</metadata>
<g transform="translate(0.000000,1920.000000) scale(0.100000,-0.100000)"
fill="#000000" stroke="none">
<path d="M9452 18018 c-180 -28 -281 -196 -206 -346 31 -63 66 -91 219 -173
65 -35 136 -80 156 -99 58 -55 70 -127 34 -212 -5 -13 -2 -17 17 -16 12 1 31
8 40 16 16 13 20 12 35 -6 14 -17 73 -39 73 -28 0 1 -9 19 -20 41 -11 22 -20
56 -20 77 0 91 51 145 220 233 177 92 230 154 230 266 0 131 -101 232 -253
254 -32 4 -75 1 -128 -11 -77 -17 -80 -16 -94 2 -13 17 -14 7 -14 -86 1 -103
1 -104 16 -70 24 56 52 89 93 110 44 22 131 27 177 9 88 -33 137 -153 99 -242
-19 -47 -67 -85 -200 -157 -65 -35 -136 -80 -159 -101 l-42 -37 -41 37 c-23
20 -99 68 -169 106 -180 99 -217 147 -200 260 7 53 52 111 102 131 42 18 135
18 176 0 41 -17 81 -60 104 -111 l18 -40 3 94 c1 51 0 96 -2 99 -3 3 -12 -1
-21 -8 -12 -10 -28 -10 -73 -2 -94 18 -114 19 -170 10z"/>
<path d="M13275 14910 c-74 -8 -191 -47 -275 -92 -34 -18 -79 -41 -98 -51 -46
-24 -281 -264 -339 -347 -26 -36 -76 -99 -113 -140 -36 -41 -103 -120 -147
-175 -45 -55 -111 -136 -147 -180 -36 -44 -89 -109 -118 -145 -29 -36 -58 -68
-65 -73 -6 -4 -37 -42 -69 -85 -32 -42 -85 -108 -119 -147 -64 -73 -336 -402
-415 -502 -135 -170 -137 -171 -246 -32 -43 55 -107 131 -141 170 -34 38 -90
106 -125 150 -35 45 -89 111 -122 148 -32 36 -89 104 -125 151 -36 46 -77 96
-90 110 -49 53 -170 197 -194 233 -14 20 -62 77 -107 126 -45 49 -96 108 -113
133 -78 107 -510 613 -532 622 -9 3 -445 6 -969 6 -784 0 -971 -3 -1057 -15
-169 -24 -334 -82 -507 -181 -72 -41 -249 -193 -314 -269 -70 -83 -188 -263
-188 -287 0 -7 -7 -24 -16 -36 -8 -12 -22 -46 -31 -74 -8 -29 -20 -59 -25 -66
-6 -7 -17 -47 -24 -90 -7 -42 -20 -113 -28 -157 -21 -111 -20 -230 4 -365 34
-190 110 -391 197 -525 15 -22 38 -58 52 -79 45 -69 224 -239 312 -297 46 -31
120 -74 165 -96 87 -44 249 -103 282 -103 11 0 58 -9 104 -20 77 -19 118 -20
607 -20 526 0 631 -6 676 -36 11 -8 29 -14 41 -14 12 0 32 -8 45 -19 13 -10
35 -22 49 -26 14 -4 34 -15 45 -25 11 -9 47 -32 80 -50 65 -37 293 -258 321
-313 9 -17 31 -51 48 -76 41 -59 133 -257 142 -308 4 -21 15 -71 25 -112 11
-41 19 -109 19 -153 0 -76 1 -79 21 -76 12 2 27 12 33 23 6 11 27 44 46 73 41
63 51 81 79 142 49 108 69 160 76 191 3 19 16 63 28 99 19 59 21 87 22 290 0
206 -2 232 -24 310 -47 169 -69 232 -108 305 -6 11 -16 31 -22 45 -10 22 -46
73 -143 205 -33 46 -238 233 -283 260 -208 123 -333 171 -540 209 -139 26
-143 26 -659 26 l-519 0 -56 31 c-74 42 -146 119 -183 197 -29 59 -30 68 -26
162 3 72 8 104 20 117 8 10 25 37 36 59 30 59 113 127 196 162 l71 30 684 0
684 1 41 -43 c23 -24 56 -63 75 -87 18 -24 63 -75 100 -114 36 -38 80 -88 96
-110 16 -22 79 -96 140 -165 208 -236 233 -266 257 -302 14 -20 41 -52 60 -70
19 -18 104 -114 189 -213 85 -99 180 -207 211 -240 31 -33 76 -87 101 -120 25
-33 94 -114 154 -180 60 -66 132 -149 161 -185 29 -36 61 -74 71 -85 9 -11 62
-70 117 -131 54 -61 129 -148 167 -195 184 -230 235 -270 270 -216 9 14 32 42
52 63 20 22 47 55 59 74 13 19 61 81 107 137 46 56 112 137 146 180 111 140
173 217 241 298 37 43 90 109 117 146 28 37 84 107 125 157 41 50 98 121 125
158 28 37 60 76 73 87 12 12 37 44 54 72 39 60 46 66 77 63 l23 -3 0 -1118 c0
-1081 0 -1117 18 -1127 14 -8 22 -6 32 6 42 52 197 212 531 546 l377 377 0
1698 c0 1308 -3 1702 -12 1711 -13 13 -45 13 -143 2z"/>
<path d="M8565 11539 c-50 -12 -128 -48 -180 -83 -48 -32 -143 -133 -151 -161
-4 -11 -13 -28 -21 -37 -14 -16 -30 -68 -53 -173 -14 -61 -12 -136 5 -191 8
-27 15 -58 15 -69 0 -11 7 -31 15 -45 8 -14 23 -43 34 -65 20 -43 95 -126 151
-166 64 -46 150 -80 238 -93 113 -17 247 1 338 45 117 58 220 170 271 296 26
64 28 77 28 213 0 131 -2 149 -23 187 -12 23 -22 49 -22 56 0 38 -192 237
-228 237 -7 0 -34 12 -58 26 -42 25 -56 27 -182 30 -75 2 -155 -1 -177 -7z"/>
<path d="M2489 7724 c-62 -19 -131 -81 -160 -146 -23 -51 -24 -62 -24 -273 0
-199 2 -224 20 -260 34 -69 102 -126 236 -194 241 -124 259 -144 259 -278 0
-101 -13 -145 -57 -194 -97 -107 -294 -61 -333 79 -5 20 -10 79 -10 130 l0 92
-60 0 -60 0 0 -108 c0 -139 16 -188 84 -258 65 -66 136 -94 241 -94 135 0 231
54 282 158 25 51 28 69 32 179 3 110 1 127 -19 168 -30 62 -90 107 -247 189
-137 70 -204 119 -228 167 -19 35 -22 386 -4 440 45 134 240 157 307 36 13
-24 18 -65 22 -172 l5 -140 64 -3 64 -3 -6 138 c-6 168 -21 218 -86 283 -75
74 -205 100 -322 64z"/>
<path d="M13510 7731 c-83 -26 -150 -82 -191 -161 l-24 -45 -3 -519 c-3 -588
-3 -588 71 -672 128 -145 391 -143 504 5 63 84 64 91 61 667 l-3 519 -27 51
c-34 64 -105 128 -165 148 -49 17 -178 20 -223 7z m169 -101 c19 -5 50 -24 68
-42 61 -59 63 -78 63 -607 0 -305 -4 -490 -11 -514 -15 -55 -72 -114 -123
-128 -96 -26 -201 16 -237 94 -17 40 -19 72 -19 552 0 474 2 513 19 550 22 49
48 73 98 91 46 16 96 17 142 4z"/>
<path d="M3390 6985 l0 -745 65 0 65 0 0 190 0 190 195 0 195 0 0 -190 0 -190
60 0 60 0 0 745 0 745 -60 0 -60 0 0 -505 0 -505 -195 0 -195 0 0 505 0 505
-65 0 -65 0 0 -745z"/>
<path d="M4537 7723 c-4 -3 -7 -339 -7 -745 l0 -738 65 0 65 0 0 745 0 745
-58 0 c-32 0 -62 -3 -65 -7z"/>
<path d="M6200 6985 l0 -745 65 0 65 0 0 190 0 190 195 0 195 0 0 -190 0 -190
60 0 60 0 0 745 0 745 -60 0 -60 0 0 -505 0 -505 -195 0 -195 0 0 505 0 505
-65 0 -65 0 0 -745z"/>
<path d="M7520 7725 c0 -7 -239 -1421 -246 -1457 l-6 -28 64 0 64 0 35 198 34
197 132 3 132 3 6 -33 c3 -18 18 -107 33 -198 l28 -165 62 -3 c34 -2 62 0 62
4 0 4 -56 336 -125 738 -69 402 -125 735 -125 739 0 4 -34 7 -75 7 -41 0 -75
-2 -75 -5z m105 -420 c15 -110 40 -274 56 -365 16 -91 29 -173 29 -182 0 -16
-12 -18 -115 -18 -63 0 -115 3 -115 6 0 3 14 87 30 186 28 166 80 534 80 567
0 47 12 -18 35 -194z"/>
<path d="M8990 7703 c0 -15 -14 -338 -30 -718 -16 -379 -30 -702 -30 -717 0
-27 1 -28 59 -28 l58 0 6 83 c4 45 11 233 17 417 6 184 14 407 18 495 l7 160
33 -225 c19 -124 62 -378 96 -565 l61 -340 67 -3 c63 -3 68 -1 73 20 3 13 41
221 84 463 44 242 88 490 99 550 l20 110 1 -240 c1 -132 8 -375 16 -540 8
-165 15 -319 15 -342 l0 -43 65 0 c36 0 65 1 65 3 0 1 -14 315 -30 697 -16
382 -30 716 -30 743 l0 47 -80 0 c-44 0 -80 -3 -80 -6 0 -3 -36 -216 -79 -472
-44 -257 -89 -528 -101 -602 -11 -74 -24 -144 -29 -154 -5 -12 -17 51 -35 175
-15 107 -60 388 -100 624 l-72 430 -82 3 -82 3 0 -28z"/>
<path d="M10420 7725 c0 -7 -239 -1421 -246 -1457 l-6 -28 64 0 64 0 35 198
34 197 132 3 132 3 6 -33 c3 -18 18 -107 33 -198 l28 -165 62 -3 c34 -2 62 1
62 5 0 4 -56 336 -125 737 -69 401 -125 733 -125 738 0 4 -34 8 -75 8 -41 0
-75 -2 -75 -5z m105 -420 c15 -110 40 -274 56 -365 16 -91 29 -173 29 -182 0
-16 -12 -18 -115 -18 -63 0 -115 3 -115 6 0 3 14 87 30 186 28 166 80 534 80
567 0 47 12 -18 35 -194z"/>
<path d="M12310 6985 l0 -745 290 0 290 0 0 50 0 50 -225 0 -225 0 0 150 0
150 175 0 175 0 0 50 0 50 -175 0 -175 0 0 445 0 445 223 2 222 3 3 48 3 47
-290 0 -291 0 0 -745z"/>
<path d="M14466 6998 c68 -403 124 -739 124 -745 0 -9 22 -13 78 -13 l77 0
124 718 c67 394 125 729 128 745 l6 27 -67 0 c-36 0 -66 -3 -66 -6 0 -3 -33
-205 -74 -447 -41 -243 -85 -524 -98 -624 -12 -101 -25 -180 -29 -175 -3 4
-16 90 -28 192 -18 148 -145 943 -166 1038 -5 20 -11 22 -69 22 l-63 0 123
-732z"/>
<path d="M15430 6985 l0 -745 290 0 290 0 0 50 0 50 -225 0 -225 0 0 150 0
150 175 0 175 0 0 50 0 50 -175 0 -175 0 0 445 0 445 223 2 222 3 3 48 3 47
-290 0 -291 0 0 -745z"/>
<path d="M16430 6986 l0 -746 65 0 65 0 0 196 0 196 138 -4 c218 -6 232 -20
232 -248 l0 -140 60 0 60 0 0 155 c0 134 -3 161 -19 194 -20 39 -83 101 -102
101 -6 0 9 23 34 50 74 83 77 99 77 455 0 342 -4 368 -60 437 -17 20 -56 49
-88 65 -56 27 -61 28 -259 31 l-203 4 0 -746z m373 630 c50 -18 76 -42 98 -91
17 -36 19 -70 19 -338 0 -319 -3 -341 -53 -396 -42 -45 -93 -61 -204 -61
l-103 0 0 450 0 450 103 0 c59 -1 118 -7 140 -14z"/>
<path d="M5130 6980 l0 -740 65 0 65 0 0 181 c0 153 3 185 17 210 10 16 20 29
24 29 3 0 88 -94 189 -210 l183 -210 79 0 80 0 -24 28 c-12 15 -116 136 -230
269 -115 132 -208 244 -208 247 0 5 388 813 432 899 l19 38 -71 -3 -71 -3
-155 -325 c-86 -179 -180 -379 -210 -445 l-53 -120 -1 448 0 447 -65 0 -65 0
0 -740z"/>
<path d="M11240 6980 l0 -740 65 0 65 0 0 181 c0 153 3 185 17 210 10 16 20
29 24 29 3 0 88 -94 189 -210 l183 -210 79 0 80 0 -24 28 c-12 15 -116 136
-230 269 -115 132 -208 243 -208 246 0 6 387 812 432 900 l19 38 -71 -3 -71
-3 -155 -325 c-86 -179 -180 -379 -210 -445 l-53 -120 -1 448 0 447 -65 0 -65
0 0 -740z"/>
<path d="M13129 5256 c-22 -37 -61 -56 -115 -56 -19 0 -34 -5 -34 -11 0 -11
42 -8 99 8 22 5 24 4 18 -18 -16 -59 -29 -178 -23 -203 9 -36 41 -66 69 -66
31 0 68 41 108 122 l34 68 -3 -99 c-4 -97 -3 -100 22 -116 17 -12 35 -15 53
-10 28 7 131 104 152 143 19 35 -2 25 -28 -13 -33 -49 -98 -113 -123 -121 -13
-4 -24 -1 -29 7 -13 21 -11 113 6 223 8 55 15 101 15 103 0 3 -9 3 -21 1 -15
-2 -26 -18 -41 -63 -46 -139 -109 -240 -146 -233 -13 2 -18 16 -20 63 -5 80
16 216 39 262 23 45 23 43 4 43 -9 0 -25 -15 -36 -34z"/>
<path d="M5289 5251 c-29 -29 -37 -51 -20 -51 5 0 14 13 21 29 12 30 35 46 51
35 5 -3 9 -27 9 -54 0 -49 -26 -258 -36 -292 -4 -14 0 -18 19 -18 21 0 26 6
32 38 26 140 98 292 145 307 49 16 62 -35 34 -136 -20 -70 -55 -109 -84 -91
-12 7 -21 8 -25 2 -3 -6 5 -15 19 -21 20 -9 32 -8 62 7 100 50 117 254 22 254
-44 0 -85 -36 -118 -104 -18 -36 -33 -66 -34 -66 0 0 1 32 2 70 6 114 -37 153
-99 91z"/>
<path d="M10153 5256 c-89 -74 -111 -307 -35 -366 49 -39 93 -19 161 74 48 66
54 76 44 76 -5 0 -16 -13 -26 -29 -9 -15 -37 -51 -63 -80 -69 -77 -97 -68
-115 37 -11 59 -10 60 24 108 53 74 79 132 75 167 -4 41 -27 45 -65 13z"/>
<path d="M11037 5259 c-18 -11 -38 -44 -74 -124 l-22 -50 -1 63 c0 68 -21 102
-61 102 -24 0 -79 -51 -79 -74 0 -27 15 -17 28 18 14 37 39 53 56 36 14 -14
11 -143 -7 -242 l-13 -78 23 0 c17 0 24 7 29 28 41 183 117 340 153 317 16 -9
13 -104 -4 -214 -13 -76 -13 -96 -3 -103 22 -14 27 -9 38 35 43 165 94 267
120 240 10 -9 9 -33 -4 -106 -23 -137 -21 -182 9 -212 28 -29 45 -31 85 -10
30 15 130 132 130 150 -1 5 -13 -6 -28 -25 -47 -61 -119 -130 -136 -130 -32 0
-40 43 -28 144 16 129 15 160 -7 187 -29 36 -65 14 -102 -64 l-29 -62 2 40 c5
124 -18 167 -75 134z"/>
<path d="M6755 5244 c-36 -37 -78 -162 -76 -227 1 -21 -1 -43 -5 -49 -4 -5 -6
-58 -5 -117 2 -118 16 -153 65 -159 22 -3 29 2 41 32 18 43 18 79 1 129 -13
35 -12 37 6 37 10 0 31 6 46 14 33 18 138 123 130 131 -3 3 -23 -15 -44 -40
-40 -49 -108 -95 -141 -95 -11 0 -28 9 -38 20 -17 19 -18 29 -8 111 9 79 15
96 48 144 37 54 41 85 11 85 -8 0 -22 -7 -31 -16z"/>
<path d="M12152 5253 c-37 -15 -74 -146 -87 -315 -7 -88 -7 -88 16 -88 21 0
28 11 52 76 28 73 55 114 77 114 20 0 9 -32 -20 -61 -29 -29 -29 -32 -15 -59
34 -65 97 -63 172 4 26 24 56 59 67 77 13 25 3 17 -39 -29 -56 -61 -99 -92
-129 -92 -8 0 -25 14 -37 31 l-22 31 32 25 c53 42 34 101 -24 75 -13 -6 -38
-35 -54 -64 l-31 -53 7 70 c5 57 13 82 45 135 52 86 47 147 -10 123z"/>
<path d="M7513 5104 c-4 -11 5 -51 21 -96 l27 -77 -32 -29 c-44 -39 -35 -67
19 -59 42 7 62 29 62 68 0 22 9 32 53 57 52 29 99 72 80 72 -5 0 -18 -9 -29
-21 -20 -22 -103 -74 -108 -68 -14 16 -49 110 -50 134 -1 34 -32 48 -43 19z"/>
<path d="M7903 5104 c-4 -11 5 -51 21 -96 l27 -77 -32 -29 c-44 -39 -35 -67
19 -59 42 7 62 29 62 68 0 22 9 32 53 57 52 29 99 72 80 72 -5 0 -18 -9 -29
-21 -20 -22 -103 -74 -108 -68 -14 16 -49 110 -50 134 -1 34 -32 48 -43 19z"/>
<path d="M9192 5083 c-12 -10 -33 -40 -47 -68 l-27 -50 7 48 c7 47 7 49 -16
45 -22 -3 -25 -10 -31 -68 -4 -36 -3 -69 2 -74 16 -16 40 3 59 48 26 58 69
126 81 126 13 0 13 -47 -1 -110 -6 -28 -8 -62 -5 -75 8 -32 45 -41 84 -21 32
17 142 133 142 150 0 6 -19 -11 -43 -39 -74 -87 -127 -128 -144 -111 -3 3 -1
31 6 62 17 87 15 131 -8 144 -27 14 -36 13 -59 -7z"/>
<path d="M6251 5043 c-57 -69 -42 -143 30 -143 18 0 36 10 52 30 19 22 34 30
57 30 42 0 98 27 112 54 l11 21 -24 -21 c-35 -31 -64 -44 -98 -44 -29 0 -31 3
-31 35 0 39 -28 75 -59 75 -11 0 -33 -17 -50 -37z"/>
<path d="M8681 5043 c-57 -69 -42 -143 30 -143 18 0 36 10 52 30 19 22 34 30
57 30 42 0 98 27 112 54 l11 21 -24 -21 c-35 -31 -64 -44 -98 -44 -29 0 -31 3
-31 35 0 39 -28 75 -59 75 -11 0 -33 -17 -50 -37z"/>
<path d="M13727 5038 l-40 -42 7 37 c6 34 5 37 -17 37 -23 0 -25 -5 -38 -97
-7 -54 -13 -143 -13 -198 -1 -84 1 -100 15 -103 14 -3 18 13 23 105 4 59 14
131 21 158 14 49 76 135 97 135 17 0 4 -108 -15 -128 -16 -15 -18 -15 -32 3
-16 20 -16 20 -13 0 3 -17 11 -20 58 -21 30 -1 45 0 32 3 l-22 4 20 26 c12 15
20 41 20 62 0 73 -44 81 -103 19z"/>
<path d="M9633 5060 c-27 -11 -43 -40 -43 -78 0 -54 58 -57 107 -6 l34 36 -7
-41 c-14 -87 24 -123 89 -82 33 20 133 138 125 146 -3 3 -28 -24 -56 -60 -96
-119 -135 -124 -113 -13 18 92 18 93 -5 96 -14 2 -27 -6 -39 -25 -26 -42 -67
-83 -82 -83 -16 0 -17 40 -2 74 7 14 24 30 38 35 l26 9 -25 1 c-14 0 -35 -4
-47 -9z"/>
<path d="M11623 5060 c-27 -11 -43 -40 -43 -78 0 -54 58 -57 107 -6 l34 36 -7
-41 c-14 -87 24 -123 89 -82 33 20 133 138 125 146 -3 3 -28 -24 -56 -60 -96
-119 -135 -124 -113 -13 18 92 18 93 -5 96 -14 2 -27 -6 -39 -25 -26 -42 -67
-83 -82 -83 -16 0 -17 40 -2 74 7 14 24 30 38 35 l26 9 -25 1 c-14 0 -35 -4
-47 -9z"/>
<path d="M6850 1670 c0 -153 2 -180 15 -180 12 0 15 16 15 88 0 102 11 126 69
143 50 15 103 -1 120 -37 6 -14 11 -63 11 -109 0 -72 3 -85 16 -85 14 0 16 13
12 100 -3 88 -6 102 -27 124 -42 44 -135 47 -179 5 l-22 -20 0 76 c0 60 -3 75
-15 75 -13 0 -15 -27 -15 -180z"/>
<path d="M6390 1820 c0 -6 30 -10 70 -10 l70 0 0 -160 c0 -136 2 -160 15 -160
13 0 15 24 15 160 l0 160 65 0 c37 0 65 4 65 10 0 6 -57 10 -150 10 -93 0
-150 -4 -150 -10z"/>
<path d="M8077 1816 c-101 -37 -143 -136 -97 -226 35 -69 115 -106 205 -97 29
3 67 13 84 21 30 16 31 19 31 81 0 51 -3 65 -15 65 -12 0 -15 -13 -15 -60 0
-66 -7 -75 -77 -86 -54 -8 -118 11 -160 50 -31 28 -37 40 -40 87 -5 67 17 107
73 134 56 27 114 30 174 10 60 -20 76 -14 29 11 -45 23 -144 28 -192 10z"/>
<path d="M10110 1660 c0 -144 2 -170 15 -170 12 0 15 15 15 75 l0 75 100 0
c60 0 100 4 100 10 0 6 -40 10 -100 10 l-100 0 0 75 0 75 115 0 c70 0 115 4
115 10 0 6 -50 10 -130 10 l-130 0 0 -170z"/>
<path d="M7363 1735 c-85 -37 -97 -163 -20 -217 41 -29 130 -31 171 -5 38 25
25 33 -20 12 -50 -23 -107 -15 -145 21 -16 15 -29 36 -29 46 0 16 11 18 121
18 l122 0 -7 32 c-18 89 -106 131 -193 93z m112 -19 c28 -12 65 -58 65 -81 0
-3 -49 -5 -110 -5 -100 0 -110 2 -110 18 0 10 12 30 28 44 44 41 72 46 127 24z"/>
<path d="M8775 1732 c-49 -22 -32 -38 19 -17 19 8 49 15 66 15 38 0 80 -39 80
-75 0 -24 -2 -25 -64 -25 -108 0 -154 -28 -140 -86 13 -51 112 -71 172 -34 32
20 32 20 32 0 0 -11 7 -20 15 -20 12 0 15 16 15 84 0 45 -5 97 -11 115 -21 59
-104 78 -184 43z m165 -152 c0 -23 -7 -35 -32 -50 -59 -36 -148 -17 -148 30 0
33 39 50 112 50 l68 0 0 -30z"/>
<path d="M9180 1620 c0 -109 2 -130 15 -130 12 0 15 17 15 89 0 74 3 93 20
114 40 50 134 44 159 -9 6 -14 11 -63 11 -109 0 -69 3 -85 15 -85 12 0 15 16
15 88 0 97 10 121 59 142 40 16 96 5 116 -23 11 -15 15 -47 15 -114 0 -76 3
-93 15 -93 21 0 21 169 0 210 -28 55 -131 65 -190 19 l-26 -21 -24 22 c-34 32
-100 37 -147 12 -37 -19 -38 -19 -38 -1 0 10 -7 19 -15 19 -13 0 -15 -21 -15
-130z"/>
<path d="M10555 1732 c-49 -22 -32 -38 19 -17 19 8 49 15 66 15 38 0 80 -39
80 -75 0 -24 -2 -25 -64 -25 -108 0 -154 -28 -140 -86 13 -51 112 -71 172 -34
32 20 32 20 32 0 0 -11 7 -20 15 -20 12 0 15 16 15 84 0 45 -5 97 -11 115 -21
59 -104 78 -184 43z m165 -152 c0 -23 -7 -35 -32 -50 -59 -36 -148 -17 -148
30 0 33 39 50 112 50 l68 0 0 -30z"/>
<path d="M11710 1728 c-105 -54 -88 -194 28 -229 80 -23 161 16 183 91 10 32
9 44 -7 76 -39 78 -123 104 -204 62z m149 -26 c53 -39 52 -126 -2 -166 -20
-15 -43 -21 -79 -21 -43 0 -53 4 -79 33 -48 54 -38 124 24 163 38 24 97 20
136 -9z"/>
<path d="M12380 1745 c0 -3 27 -59 60 -125 33 -66 60 -126 60 -134 0 -23 -50
-76 -72 -76 -10 0 -28 5 -38 10 -12 6 -21 7 -25 1 -15 -25 68 -41 106 -21 24
13 194 350 176 350 -7 0 -39 -53 -71 -117 l-58 -118 -59 118 c-33 64 -64 117
-69 117 -6 0 -10 -2 -10 -5z"/>
</g>
</svg>
